<?xml version="1.0" encoding="UTF-8"?>
<svg width="2048px" height="2048px" viewBox="0 0 2048 2048" xmlns="http://www.w3.org/2000/svg" xmlns:xlink="http://www.w3.org/1999/xlink" version="1.1">
 <!-- Generated by Pixelmator Pro Trial 2.0.7 -->
 <path id="Rounded-Rectangle-copy" d="M623.167 353 C534.802 353 463.167 424.635 463.167 513 L463.167 1883 C463.167 1971.365 534.802 2043 623.167 2043 L623.167 2043 C711.531 2043 783.167 1971.365 783.167 1883 L783.167 513 C783.167 424.635 711.531 353 623.167 353 Z" fill="#000000" fill-opacity="1" stroke="none"/>
 <path id="Path-copy" d="M1584 562.5 C1584 254.601 1334.399 5 1026.5 5 718.601 5 469 254.601 469 562.5 469 870.399 718.601 1120 1026.5 1120 1334.399 1120 1584 870.399 1584 562.5 Z" fill="#000000" fill-opacity="1" stroke="#000000" stroke-width="20" stroke-opacity="1" stroke-linejoin="round" stroke-linecap="round"/>
</svg>
