<svg width="89" height="11" viewBox="0 0 89 11" fill="none" xmlns="http://www.w3.org/2000/svg">
<path fill-rule="evenodd" clip-rule="evenodd" d="M53.2637 4.64479C41.4194 4.82541 29.5692 5.54194 17.7765 6.8227C12.1699 7.43173 5.6589 7.3556 0.221166 9.43199C-0.0497822 9.53648 0.00181896 9.84995 0.00768365 9.8813C0.019413 9.94549 0.068689 10.1589 0.284509 10.1694C0.307968 10.1709 0.473341 10.141 0.536679 10.1306C2.14243 9.86188 3.74232 9.54843 5.34924 9.29467C10.8972 8.41545 16.4616 7.75119 22.0343 7.16902C29.4308 6.39579 36.8907 5.98378 44.3072 5.66135C48.3667 5.48521 52.5236 5.71956 56.596 5.35533C58.0915 5.34488 59.587 5.34342 61.0825 5.34939C67.3343 5.37775 73.579 5.67928 79.8202 6.09277C81.8271 6.22562 83.3578 6.36892 85.3224 6.46595C86.0684 6.50327 87.2519 6.52865 88.0753 6.54507C88.1961 6.54806 88.5046 6.55101 88.6325 6.55251C88.6454 6.55549 88.6583 6.55549 88.6723 6.55549C88.7216 6.55549 88.7451 6.55101 88.7498 6.55101C89.0289 6.49877 89.0031 6.16291 88.9961 6.11216C88.9949 6.10171 88.9527 5.81808 88.7122 5.80763C88.6548 5.80465 88.2431 5.80169 88.0847 5.79871C87.266 5.78229 86.0872 5.75691 85.3447 5.72108C83.3836 5.62405 81.8541 5.48075 79.8507 5.3479C73.6001 4.93441 67.346 4.63139 61.0849 4.60303C60.3201 4.60004 59.5542 4.59855 58.7894 4.60004C58.7636 4.51495 58.7062 4.41942 58.5795 4.37762C58.461 4.33881 57.613 4.30448 57.2857 4.27015C54.8636 4.01639 54.9352 4.02833 52.2703 3.82084C48.2342 3.50587 47.6195 3.43419 43.4216 3.30133C35.7963 3.05951 28.1676 3.07894 20.5411 3.10283C16.776 3.11626 12.7446 3.44018 8.92201 2.83562C10.1817 2.64754 11.4462 2.51021 12.7082 2.35347C17.0176 1.81907 21.3305 1.48767 25.6575 1.25481C36.0368 0.696525 46.4325 0.474126 56.8083 1.23542C54.5997 1.26229 52.3922 1.32496 50.1836 1.36527C41.193 1.53245 32.1157 1.40708 23.1439 2.27435C22.9832 2.29077 22.8624 2.46989 22.8741 2.67439C22.8858 2.88039 23.0277 3.03415 23.1884 3.01922C32.1485 2.15195 41.213 2.27882 50.1918 2.11163C53.5276 2.05043 56.8623 1.93998 60.1981 1.97282C61.3429 1.98476 62.4877 2.03851 63.6325 2.05642C63.8589 2.0609 64.4418 2.11762 64.5251 2.09374C64.7093 2.04149 64.7491 1.86832 64.7608 1.78324C64.7667 1.73249 64.7855 1.43991 64.504 1.33542C62.5827 0.621895 59.0369 0.654735 57.1696 0.514418C46.666 -0.276729 36.1412 -0.0558107 25.6329 0.508441C21.2953 0.7428 16.9719 1.0757 12.6508 1.61159C11.1412 1.79818 9.62812 1.95939 8.12442 2.20719C7.88162 2.24749 7.33621 2.30572 7.0723 2.36692C6.96204 2.3923 6.88227 2.4281 6.84709 2.45347C6.70985 2.55199 6.68522 2.6953 6.68522 2.79233C6.68405 2.86696 6.70868 3.12968 6.99605 3.20133C11.3746 4.29252 16.1391 3.86412 20.5423 3.84919C28.164 3.82531 35.787 3.80588 43.4075 4.0477C47.5949 4.18055 48.2072 4.25074 52.2351 4.56571C52.6327 4.59556 52.9693 4.6224 53.2637 4.64479Z" fill="#FFF142"/>
</svg>
