<?xml version="1.0" encoding="UTF-8"?>
<svg width="2048px" height="2048px" viewBox="0 0 2048 2048" xmlns="http://www.w3.org/2000/svg" xmlns:xlink="http://www.w3.org/1999/xlink" version="1.1">
 <!-- Generated by Pixelmator Pro Trial 2.0.7 -->
 <defs>
  <linearGradient id="linear-gradient" gradientUnits="userSpaceOnUse" x1="625.747" y1="2047.305" x2="625.747" y2="357.064">
   <stop offset="0" stop-color="#ff4eac" stop-opacity="1"/>
   <stop offset="1" stop-color="#b147dd" stop-opacity="1"/>
  </linearGradient>
 </defs>
 <path id="Rounded-Rectangle" d="M624.167 358 C535.802 358 464.167 429.635 464.167 518 L464.167 1888 C464.167 1976.365 535.802 2048 624.167 2048 L624.167 2048 C712.531 2048 784.167 1976.365 784.167 1888 L784.167 518 C784.167 429.635 712.531 358 624.167 358 Z" fill-opacity="1" fill="url(#linear-gradient)" stroke="none"/>
 <defs>
  <linearGradient id="linear-gradient-1" gradientUnits="userSpaceOnUse" x1="475.428" y1="566.962" x2="1590.586" y2="566.962">
   <stop offset="0" stop-color="#d168e9" stop-opacity="1"/>
   <stop offset="1" stop-color="#eab6fe" stop-opacity="1"/>
  </linearGradient>
  <linearGradient id="linear-gradient-2" gradientUnits="userSpaceOnUse" x1="1286.954" y1="74.053" x2="768.046" y2="1060.947">
   <stop offset="0" stop-color="#d871fa" stop-opacity="1"/>
   <stop offset="1" stop-color="#f7d9fb" stop-opacity="1"/>
  </linearGradient>
 </defs>
 <path id="Path" d="M1585 567.5 C1585 259.601 1335.399 10 1027.5 10 719.601 10 470 259.601 470 567.5 470 875.399 719.601 1125 1027.5 1125 1335.399 1125 1585 875.399 1585 567.5 Z" fill-opacity="1" fill="url(#linear-gradient-1)" stroke-width="20" stroke-opacity="1" stroke="url(#linear-gradient-2)"/>
</svg>
